<svg xmlns="http://www.w3.org/2000/svg" id="a" viewBox="0 0 1920 585.812"><path d="M290.395,220.215c-4.297-5.316-11.731-5.255-12.225-5.244-.766.018-7.242.265-11.369,5.15-4.695,5.558-.994,10.777-5.054,24.323-1.268,4.231-2.124,6.977-4.553,9.814-1.209,1.411-4.389,4.536-14.289,7.449-12.963,3.815-18.306.529-23.484,5.56-4.411,4.286-4.31,10.394-4.299,10.751.017.566.261,5.886,4.299,9.821,5.414,5.278,10.953,1.536,24.659,5.966,8.579,2.772,11.684,5.943,12.973,7.449.636.743,2.629,3.229,4.668,9.539,4.209,13.025.262,17.998,4.957,24.288.318.426,4.685,6.095,11.494,6.272,4.863.126,9.667-2.584,12.387-6.383,4.717-6.587-.101-11.881,4.296-24.401.999-2.846,2.209-6.199,5.202-9.488,1.16-1.275,4.404-4.536,12.714-7.306,13.247-4.415,18.576-.655,24.03-5.841.387-.368,4.286-4.189,4.418-9.916.144-6.254-4.304-10.518-4.585-10.78-5.542-5.166-10.83-1.069-23.863-5.531-8.234-2.819-11.603-6.323-12.619-7.449-3.056-3.388-4.287-6.83-5.296-9.742-4.41-12.728.333-18.374-4.459-24.302Z" fill="#fff"></path><path d="M83.909,278.164h47.67c-.007-12.097,1.472-30.996,9.633-52.311,9.696-25.327,24.298-42.242,33.421-51.326-3.604-5.881-8.15-12.464-13.847-19.291-5.688-6.817-11.497-12.765-16.631-17.36-8.124,7.954-19.392,20.176-29.624,36.008-8.745,13.531-13.872,25.273-15.052,28.019-.643,1.497-2.011,4.734-3.57,8.951-7.32,19.799-9.945,37.083-11.013,47.632-.509,5.024-.989,11.724-.987,19.679Z" fill="#f2a040"></path><path d="M83.909,278.164h47.67c-.011,12.175,1.488,31.934,10.377,54.215,9.694,24.299,23.78,40.575,32.676,49.422-4.023,6.151-8.823,12.805-14.523,19.678-5.465,6.59-10.88,12.324-15.979,17.265-7.025-6.722-15.521-15.849-23.938-27.609-11.775-16.453-18.521-31.25-22.002-39.79-3.641-8.932-7.932-21.38-10.852-36.679-2.677-14.022-3.442-26.465-3.43-36.502Z" fill="#f4c854"></path><path d="M144.155,137.875c5.012,4.526,10.467,10.002,15.958,16.532,5.976,7.107,10.743,13.975,14.52,20.12,1.863-1.726,4.481-4.083,7.706-6.772,4.191-3.496,9.749-8.109,17.652-13.105,4.378-2.768,10.59-6.368,18.383-9.856,7.632-3.417,13.974-5.47,17.524-6.535,5.276-1.582,10.276-2.63,14.075-3.455,10.743-2.334,12.391-2.048,16.083-4.106,1.672-.933,6.464-3.686,9.72-9.505,1.043-1.864,4.248-8.189,2.619-16.308-.176-.877-2.13-9.885-10.431-15.252-3.159-2.043-6.15-2.855-7.703-3.188-4.231-.908-7.506-.341-11.817.45-10.992,2.016-16.489,3.025-19.792,3.893-7.834,2.06-13.913,4.186-17.119,5.358-12.192,4.457-21.741,9.35-27.822,12.739-3.822,2.13-13.77,7.846-25.509,16.997-5.745,4.478-10.45,8.633-14.047,11.995Z" fill="#ef7043"></path><path d="M144.131,418.745c4.922-4.83,10.096-10.342,15.316-16.585,5.927-7.089,10.948-13.966,15.186-20.358,1.852,1.846,4.369,4.254,7.469,6.94,6.835,5.922,13.066,10.215,17.585,13.076,2.188,1.385,8.973,5.6,18.455,9.911,4.221,1.919,9.754,4.411,17.34,6.664,4.983,1.48,9.564,2.475,14.075,3.455,10.76,2.337,12.401,2.058,16.083,4.106,1.8,1.002,6.563,3.734,9.72,9.505,4.042,7.389,2.652,14.641,2.266,16.393-.186.845-2.293,9.74-10.581,15.058-3.246,2.083-6.274,2.868-7.58,3.154-4.186.918-7.468.39-11.436-.306-10.047-1.763-15.071-2.644-19.792-3.893-8.835-2.338-15.385-4.719-17.119-5.358-3.37-1.241-14.28-5.371-27.616-12.862-7.112-3.995-15.914-9.507-25.387-16.907-5.685-4.442-10.363-8.588-13.983-11.993Z" fill="#477ab2"></path><path d="M461.429,231.73c19.035,0,26.725,14.078,26.725,28.029,0,14.21-7.691,28.029-26.725,28.029h-23.857v33.766h-11.864v-89.824h35.721ZM460.647,276.707c11.212,0,15.645-8.344,15.645-16.949,0-8.344-4.303-17.078-14.993-17.078h-23.727v34.027h23.075Z" fill="#fff"></path><path d="M569.116,286.354v35.199h-11.342v-34.548c0-10.168-6.258-16.687-14.732-16.687s-18.642,5.084-18.642,18.252v32.983h-11.342v-93.995h11.342v42.369c3.65-7.431,13.558-10.821,20.207-10.821,15.122,0,24.64,10.17,24.509,27.249Z" fill="#fff"></path><path d="M646.428,260.671h11.342v60.882h-11.342v-10.821c-4.042,7.302-12.515,12.386-22.293,12.386-15.906,0-29.854-13.428-29.854-32.071,0-17.991,13.167-31.941,30.375-31.941,9.126,0,17.73,3.912,21.772,11.082v-9.517ZM646.428,291.047c0-12.515-10.56-21.25-20.729-21.25-11.081,0-19.947,9.777-19.947,21.25,0,11.603,8.866,21.38,20.078,21.38,10.821,0,20.599-8.994,20.599-21.38Z" fill="#fff"></path><path d="M727.13,261.453l-1.825,10.691c-3.259-1.565-6.518-2.086-8.865-2.086-12.124,0-16.948,13.166-16.948,29.203v22.292h-11.474v-60.882h11.474v13.819c3.128-10.689,8.995-15.384,17.077-15.384,4.303,0,8.735,1.174,10.56,2.347Z" fill="#fff"></path><path d="M844.724,286.354v35.199h-11.343v-34.548c0-10.168-5.605-16.947-14.471-16.947-10.821-.132-16.427,7.429-16.427,20.989v30.506h-11.342v-34.548c0-10.298-5.606-16.947-13.689-16.947-8.604,0-17.208,5.605-17.208,18.512v32.983h-11.342v-60.882h11.342v9.388c2.998-6.649,10.95-10.953,19.556-10.953,8.865,0,16.556,4.695,20.077,13.039,5.606-10.953,15.122-13.039,21.25-13.039,15.253,0,23.597,10.17,23.597,27.249Z" fill="#fff"></path><path d="M922.038,260.671h11.342v60.882h-11.342v-10.821c-4.042,7.302-12.515,12.386-22.293,12.386-15.906,0-29.854-13.428-29.854-32.071,0-17.991,13.167-31.941,30.375-31.941,9.126,0,17.73,3.912,21.772,11.082v-9.517ZM922.038,291.047c0-12.515-10.56-21.25-20.729-21.25-11.081,0-19.947,9.777-19.947,21.25,0,11.603,8.866,21.38,20.078,21.38,10.821,0,20.599-8.994,20.599-21.38Z" fill="#fff"></path><path d="M959.326,291.047c0-19.294,15.253-31.941,32.723-31.941,9.516,0,17.86,3.781,23.205,9.647l-7.17,7.431c-3.782-3.91-9.257-6.387-15.644-6.387-11.994,0-21.642,8.735-21.642,21.25s9.647,21.38,21.642,21.38c6.387,0,11.863-2.477,15.644-6.387l7.17,7.431c-5.346,5.996-13.689,9.647-23.205,9.647-17.47,0-32.723-12.777-32.723-32.071Z" fill="#fff"></path><path d="M1095.695,296.001h-49.541c1.695,10.821,9.517,16.426,19.947,16.426,7.431,0,14.21-3.389,17.73-9.517l9.778,3.912c-5.215,10.559-16.166,16.296-27.899,16.296-17.339,0-31.289-12.907-31.289-32.201s13.95-31.812,31.289-31.812,30.246,12.515,30.246,31.812c0,1.695-.131,3.389-.26,5.084ZM1084.614,286.223c-1.434-10.43-8.866-16.426-18.904-16.426-10.299,0-17.599,5.475-19.425,16.426h38.329Z" fill="#fff"></path><path d="M1165.837,260.671h11.343v60.882h-11.343v-9.517c-3.65,7.693-13.428,11.082-20.207,11.082-15.253,0-24.64-10.17-24.509-27.249v-35.199h11.342v34.939c0,10.3,6.127,16.817,14.601,16.817s18.642-5.084,18.773-18.252v-33.504Z" fill="#fff"></path><path d="M1236.502,260.671v9.777h-13.168v51.106h-11.342v-51.106h-10.95v-9.777h10.95v-22.945h11.342v22.945h13.168Z" fill="#fff"></path><path d="M1257.231,238.247c0-4.301,3.651-7.561,7.952-7.561,4.433,0,8.083,3.26,8.083,7.561s-3.65,7.561-8.083,7.561c-4.301,0-7.952-3.257-7.952-7.561ZM1259.578,321.553v-60.882h11.342v60.882h-11.342Z" fill="#fff"></path><path d="M1296.735,291.047c0-19.294,15.253-31.941,32.723-31.941,9.516,0,17.86,3.781,23.205,9.647l-7.17,7.431c-3.782-3.91-9.257-6.387-15.644-6.387-11.994,0-21.642,8.735-21.642,21.25s9.647,21.38,21.642,21.38c6.387,0,11.863-2.477,15.644-6.387l7.17,7.431c-5.346,5.996-13.689,9.647-23.205,9.647-17.47,0-32.723-12.777-32.723-32.071Z" fill="#fff"></path><path d="M1423.848,260.671h11.342v60.882h-11.342v-10.821c-4.042,7.302-12.515,12.386-22.293,12.386-15.906,0-29.854-13.428-29.854-32.071,0-17.991,13.167-31.941,30.375-31.941,9.126,0,17.73,3.912,21.772,11.082v-9.517ZM1423.848,291.047c0-12.515-10.56-21.25-20.729-21.25-11.081,0-19.947,9.777-19.947,21.25,0,11.603,8.866,21.38,20.078,21.38,10.821,0,20.599-8.994,20.599-21.38Z" fill="#fff"></path><path d="M1465.439,321.553v-93.995h11.342v93.995h-11.342Z" fill="#fff"></path><path d="M488.546,445.261c0,12.907-9.778,25.292-26.203,25.292h-36.634v-89.824h33.766c14.862,0,24.248,8.865,24.248,22.945,0,7.82-2.868,15.775-11.342,19.032,10.559,2.347,16.165,12.777,16.165,22.554ZM459.343,391.68h-21.771v26.464h22.162c8.083,0,12.124-5.605,12.124-13.298s-4.301-13.166-12.515-13.166ZM459.865,459.603c11.081,0,16.817-7.04,16.817-15.384,0-8.082-5.215-15.645-16.165-15.645h-22.945v31.029h22.293Z" fill="#fff"></path><path d="M558.821,409.671h11.342v60.882h-11.342v-9.517c-3.65,7.693-13.428,11.082-20.207,11.082-15.253,0-24.64-10.17-24.509-27.249v-35.199h11.342v34.939c0,10.298,6.128,16.817,14.601,16.817s18.643-5.084,18.773-18.252v-33.504Z" fill="#fff"></path><path d="M595.457,452.693h10.56c.131,5.216,4.694,9.517,12.124,9.517,7.692,0,12.255-3.781,12.255-8.735,0-4.563-3.52-6.911-8.344-7.952l-8.344-1.956c-10.169-2.737-16.036-7.691-16.036-17.47,0-10.038,8.604-17.991,20.859-17.991,10.299,0,20.99,5.475,20.99,17.731h-10.952c-.131-4.693-4.954-7.823-9.778-7.823-5.866,0-9.778,3.781-9.778,8.473,0,4.172,3.911,6.39,7.823,7.302l8.995,2.216c12.646,3.13,15.905,10.691,15.905,17.599,0,11.344-10.95,18.514-23.597,18.514-10.95,0-22.162-6.911-22.684-19.426Z" fill="#fff"></path><path d="M665.076,387.247c0-4.301,3.651-7.561,7.952-7.561,4.433,0,8.083,3.26,8.083,7.561s-3.65,7.561-8.083,7.561c-4.301,0-7.952-3.257-7.952-7.561ZM667.424,470.554v-60.882h11.342v60.882h-11.342Z" fill="#fff"></path><path d="M764.94,435.355v35.199h-11.342v-34.548c0-10.168-6.258-16.687-14.732-16.687s-18.642,5.084-18.642,18.252v32.983h-11.342v-60.882h11.342v9.256c3.65-7.431,13.558-10.821,20.207-10.821,15.122,0,24.64,10.17,24.509,27.249Z" fill="#fff"></path><path d="M851.509,445.002h-49.541c1.695,10.821,9.517,16.426,19.947,16.426,7.431,0,14.21-3.389,17.73-9.517l9.778,3.912c-5.215,10.559-16.166,16.296-27.899,16.296-17.339,0-31.289-12.907-31.289-32.201s13.95-31.812,31.289-31.812,30.246,12.515,30.246,31.812c0,1.695-.131,3.389-.26,5.084ZM840.427,435.223c-1.434-10.43-8.866-16.426-18.904-16.426-10.299,0-17.599,5.475-19.425,16.426h38.329Z" fill="#fff"></path><path d="M872.892,452.693h10.56c.131,5.216,4.693,9.517,12.124,9.517,7.692,0,12.255-3.781,12.255-8.735,0-4.563-3.52-6.911-8.344-7.952l-8.344-1.956c-10.169-2.737-16.036-7.691-16.036-17.47,0-10.038,8.604-17.991,20.859-17.991,10.299,0,20.99,5.475,20.99,17.731h-10.952c-.13-4.693-4.954-7.823-9.778-7.823-5.866,0-9.778,3.781-9.778,8.473,0,4.172,3.911,6.39,7.823,7.302l8.995,2.216c12.646,3.13,15.905,10.691,15.905,17.599,0,11.344-10.95,18.514-23.597,18.514-10.95,0-22.162-6.911-22.684-19.426Z" fill="#fff"></path><path d="M940.034,452.693h10.56c.131,5.216,4.693,9.517,12.124,9.517,7.692,0,12.255-3.781,12.255-8.735,0-4.563-3.52-6.911-8.344-7.952l-8.344-1.956c-10.169-2.737-16.036-7.691-16.036-17.47,0-10.038,8.604-17.991,20.859-17.991,10.299,0,20.99,5.475,20.99,17.731h-10.952c-.13-4.693-4.954-7.823-9.778-7.823-5.866,0-9.778,3.781-9.778,8.473,0,4.172,3.911,6.39,7.823,7.302l8.995,2.216c12.646,3.13,15.905,10.691,15.905,17.599,0,11.344-10.95,18.514-23.597,18.514-10.95,0-22.162-6.911-22.684-19.426Z" fill="#fff"></path><path d="M1058.022,470.554v-89.824h11.864v89.824h-11.864Z" fill="#fff"></path><path d="M1157.887,435.355v35.199h-11.342v-34.548c0-10.168-6.258-16.687-14.732-16.687s-18.642,5.084-18.642,18.252v32.983h-11.343v-60.882h11.343v9.256c3.65-7.431,13.558-10.821,20.207-10.821,15.122,0,24.64,10.17,24.509,27.249Z" fill="#fff"></path><path d="M1215.645,409.671v9.779h-13.168v51.104h-11.342v-51.104h-10.95v-9.779h10.95v-22.945h11.342v22.945h13.168Z" fill="#fff"></path><path d="M1294.651,445.002h-49.541c1.696,10.821,9.517,16.426,19.947,16.426,7.431,0,14.21-3.389,17.73-9.517l9.778,3.912c-5.215,10.559-16.166,16.296-27.899,16.296-17.339,0-31.289-12.907-31.289-32.201s13.95-31.812,31.289-31.812,30.246,12.515,30.246,31.812c0,1.695-.13,3.389-.26,5.084ZM1283.57,435.223c-1.434-10.43-8.866-16.426-18.904-16.426-10.299,0-17.599,5.475-19.425,16.426h38.329Z" fill="#fff"></path><path d="M1320.859,470.554v-93.995h11.342v93.995h-11.342Z" fill="#fff"></path><path d="M1362.315,470.554v-93.995h11.343v93.995h-11.343Z" fill="#fff"></path><path d="M1401.426,387.247c0-4.301,3.651-7.561,7.952-7.561,4.433,0,8.083,3.26,8.083,7.561s-3.65,7.561-8.083,7.561c-4.301,0-7.952-3.257-7.952-7.561ZM1403.774,470.554v-60.882h11.342v60.882h-11.342Z" fill="#fff"></path><path d="M1493.338,409.671h11.342v52.409c0,28.811-13.036,39.632-33.113,39.632-11.081,0-21.381-5.607-27.378-16.296l9.648-5.086c3.781,6.911,10.95,10.691,17.73,10.691,13.428,0,21.771-7.561,21.771-28.159v-1.827c-4.041,6.911-12.907,11.082-21.642,11.082-16.687,0-30.506-12.907-30.506-32.071,0-19.294,13.689-31.941,30.376-31.941,9.126,0,17.73,4.042,21.771,11.082v-9.517ZM1493.338,439.918c0-13.168-10.69-21.121-20.728-21.121-11.081,0-19.947,8.865-19.947,21.121,0,12.124,8.866,21.51,19.947,21.51,10.95,0,20.728-8.473,20.728-21.51Z" fill="#fff"></path><path d="M1592.16,445.002h-49.541c1.695,10.821,9.517,16.426,19.947,16.426,7.431,0,14.21-3.389,17.73-9.517l9.778,3.912c-5.215,10.559-16.166,16.296-27.899,16.296-17.339,0-31.289-12.907-31.289-32.201s13.95-31.812,31.289-31.812,30.246,12.515,30.246,31.812c0,1.695-.131,3.389-.26,5.084ZM1581.079,435.223c-1.434-10.43-8.866-16.426-18.904-16.426-10.299,0-17.599,5.475-19.425,16.426h38.329Z" fill="#fff"></path><path d="M1674.426,435.355v35.199h-11.342v-34.548c0-10.168-6.258-16.687-14.732-16.687s-18.642,5.084-18.642,18.252v32.983h-11.343v-60.882h11.343v9.256c3.65-7.431,13.558-10.821,20.207-10.821,15.122,0,24.64,10.17,24.509,27.249Z" fill="#fff"></path><path d="M1699.46,440.047c0-19.294,15.253-31.941,32.723-31.941,9.516,0,17.86,3.781,23.205,9.647l-7.17,7.431c-3.781-3.91-9.257-6.387-15.644-6.387-11.994,0-21.642,8.735-21.642,21.25s9.647,21.38,21.642,21.38c6.387,0,11.864-2.477,15.644-6.387l7.17,7.431c-5.346,5.996-13.689,9.647-23.205,9.647-17.47,0-32.723-12.777-32.723-32.071Z" fill="#fff"></path><path d="M1835.831,445.002h-49.541c1.695,10.821,9.517,16.426,19.947,16.426,7.431,0,14.21-3.389,17.729-9.517l9.779,3.912c-5.216,10.559-16.166,16.296-27.899,16.296-17.34,0-31.289-12.907-31.289-32.201s13.949-31.812,31.289-31.812,30.244,12.515,30.244,31.812c0,1.695-.13,3.389-.259,5.084ZM1824.748,435.223c-1.433-10.43-8.865-16.426-18.903-16.426-10.3,0-17.599,5.475-19.426,16.426h38.329Z" fill="#fff"></path><path d="M493.604,115.31c0,14.731-8.995,29.073-29.333,29.073h-18.513v31.418h-18.12v-89.824h36.633c20.338,0,29.333,14.601,29.333,29.332ZM475.351,115.31c0-6.519-3.259-13.298-11.733-13.298h-17.861v26.466h17.6c8.735,0,11.993-6.781,11.993-13.168Z" fill="#fff"></path><path d="M604.03,85.978v89.824h-18.121v-36.504h-33.505v36.504h-18.121v-89.824h18.121v37.023h33.505v-37.023h18.121Z" fill="#fff"></path><path d="M718.628,150.118c0,12.386-8.474,25.684-28.29,25.684h-38.329v-89.824h35.591c16.036,0,26.334,9.647,26.334,23.204,0,6.649-2.607,15.645-12.385,18.643,11.472,1.956,17.078,12.124,17.078,22.292ZM670.131,102.013v19.685h16.427c5.737,0,9.256-3.781,9.256-9.906,0-5.477-2.867-9.779-9.256-9.779h-16.427ZM700.376,148.294c0-5.605-3.781-11.471-12.385-11.471h-17.861v22.945h17.6c8.473,0,12.645-5.477,12.645-11.474Z" fill="#fff"></path><path d="M761.261,85.978h18.121v89.824h-18.121v-89.824Z" fill="#fff"></path></svg>