<svg xmlns="http://www.w3.org/2000/svg" xmlns:xlink="http://www.w3.org/1999/xlink" width="216.147" height="433.535" viewBox="0 0 216.147 433.535"><defs><clipPath id="clip-path"><rect id="Rectangle_30" data-name="Rectangle 30" width="216.147" height="433.535" transform="translate(0 -21)" fill="none"></rect></clipPath></defs><g id="Group_31" data-name="Group 31" transform="translate(-188.65 -4067)"><g id="Group_10" data-name="Group 10" transform="translate(188.65 4088.004)"><g id="Group_9" data-name="Group 9" transform="translate(0 -0.004)" clip-path="url(#clip-path)"><path id="Path_8" data-name="Path 8" d="M0,378.643H46.675A142.743,142.743,0,0,1,88.829,277.172a159.834,159.834,0,0,0-13.557-18.888,165.424,165.424,0,0,0-16.284-17,207.729,207.729,0,0,0-29,35.255,191.879,191.879,0,0,0-14.737,27.433c-.63,1.466-1.969,4.635-3.5,8.764A189.957,189.957,0,0,0,0,378.642Z" transform="translate(-0.002 -199.475)" fill="#f2a040"></path><path id="Path_9" data-name="Path 9" d="M0,893.545H46.674A142.748,142.748,0,0,0,88.827,995.015a211.782,211.782,0,0,1-14.219,19.267,211.816,211.816,0,0,1-15.645,16.9A192.274,192.274,0,0,1,13.984,965.2,189.366,189.366,0,0,1,0,893.545Z" transform="translate(0 -697.777)" fill="#f4c854"></path><path id="Path_10" data-name="Path 10" d="M280.108,50.809a164.207,164.207,0,0,1,29.841,35.885c1.825-1.69,4.388-4,7.545-6.631a154.046,154.046,0,0,1,17.283-12.831,143.344,143.344,0,0,1,35.156-16.048c5.165-1.549,10.061-2.575,13.781-3.383,10.518-2.285,12.132-2.005,15.747-4.02a24.18,24.18,0,0,0,9.517-9.306,23.615,23.615,0,0,0,2.564-15.967A24.641,24.641,0,0,0,401.328,3.574,22.818,22.818,0,0,0,393.786.453c-4.143-.889-7.349-.334-11.57.44C371.454,2.867,366.073,3.854,362.839,4.7c-7.67,2.017-13.622,4.1-16.761,5.246a190.315,190.315,0,0,0-27.24,12.473,197.578,197.578,0,0,0-24.976,16.641c-5.625,4.384-10.231,8.453-13.753,11.744Z" transform="translate(-208.121 -20.997)" fill="#ef7043"></path><path id="Path_11" data-name="Path 11" d="M280,1411.568c4.819-4.729,9.885-10.126,15-16.239a224.423,224.423,0,0,0,14.869-19.932c1.814,1.807,4.278,4.165,7.313,6.8a143.726,143.726,0,0,0,17.217,12.8,151.346,151.346,0,0,0,18.069,9.7,123.792,123.792,0,0,0,16.978,6.525c4.878,1.449,9.364,2.423,13.781,3.383,10.535,2.288,12.142,2.015,15.746,4.02a22.809,22.809,0,0,1,11.735,25.356,25.045,25.045,0,0,1-10.36,14.744,23.043,23.043,0,0,1-7.421,3.088c-4.1.9-7.312.382-11.2-.3-9.837-1.726-14.756-2.589-19.378-3.812-8.651-2.289-15.063-4.621-16.761-5.246a190.868,190.868,0,0,1-27.038-12.593,197.4,197.4,0,0,1-24.856-16.553c-5.566-4.349-10.146-8.409-13.691-11.742Z" transform="translate(-207.691 -1068.158)" fill="#477ab2"></path></g></g></g></svg>