<svg xmlns="http://www.w3.org/2000/svg" id="a" viewBox="0 0 1920 2789.964"><path d="M1491.583,999.234c-29.296-36.241-79.975-35.825-83.343-35.747-5.225.121-49.371,1.806-77.506,35.112-32.006,37.887-6.777,73.467-34.456,165.816-8.645,28.843-14.477,47.567-31.04,66.906-8.241,9.622-29.92,30.924-97.413,50.784-88.375,26.005-124.796,3.608-160.094,37.905-30.074,29.221-29.38,70.856-29.306,73.29.118,3.857,1.782,40.124,29.306,66.954,36.912,35.982,74.67,10.475,168.11,40.67,58.485,18.9,79.651,40.513,88.44,50.782,4.336,5.066,17.923,22.012,31.823,65.027,28.691,88.793,1.788,122.695,33.791,165.579,2.168,2.905,31.938,41.553,78.355,42.755,33.151.859,65.9-17.613,84.447-43.512,32.158-44.907-.687-80.996,29.287-166.351,6.812-19.399,15.056-42.258,35.46-64.68,7.91-8.692,30.026-30.925,86.672-49.806,90.305-30.099,126.641-4.465,163.821-39.82,2.637-2.508,29.217-28.56,30.116-67.599.982-42.639-29.341-71.704-31.256-73.488-37.783-35.216-73.829-7.289-162.681-37.707-56.136-19.218-79.101-43.108-86.027-50.784-20.835-23.094-29.227-46.56-36.105-66.414-30.063-86.774,2.267-125.259-30.401-165.673Z" fill="#fff"></path><path d="M83.91,1394.286h324.981c-.046-82.466,10.037-211.306,65.669-356.621,66.101-172.66,165.649-287.973,227.838-349.904-24.569-40.094-55.564-84.972-94.396-131.512-38.777-46.475-78.38-87.025-113.381-118.351-55.383,54.223-132.203,137.546-201.955,245.478-59.616,92.248-94.568,172.297-102.612,191.011-4.386,10.204-13.708,32.27-24.338,61.022-49.899,134.974-67.798,252.808-75.081,324.722-3.469,34.253-6.741,79.929-6.726,134.156Z" fill="#f2a040"></path><path d="M83.91,1394.286h324.981c-.073,83.001,10.147,217.705,70.745,369.601,66.086,165.655,162.112,276.613,222.762,336.924-27.428,41.935-60.147,87.296-99.006,134.154-37.254,44.924-74.173,84.017-108.932,117.699-47.889-45.824-105.814-108.049-163.193-188.221-80.274-112.163-126.26-213.041-149.991-271.262-24.82-60.892-54.074-145.752-73.982-250.049-18.247-95.595-23.468-180.417-23.384-248.846Z" fill="#f4c854"></path><path d="M494.622,437.898c34.168,30.858,71.357,68.188,108.788,112.702,40.743,48.453,73.239,95.269,98.988,137.162,12.703-11.763,30.55-27.833,52.535-46.169,28.572-23.83,66.464-55.282,120.338-89.343,29.847-18.87,72.192-43.409,125.324-67.194,52.031-23.291,95.268-37.292,119.464-44.549,35.967-10.788,70.053-17.926,95.954-23.552,73.239-15.909,84.476-13.962,109.641-27.993,11.402-6.357,44.068-25.129,66.264-64.798,7.111-12.709,28.957-55.826,17.851-111.177-1.2-5.979-14.524-67.387-71.108-103.977-21.535-13.925-41.926-19.465-52.514-21.736-28.845-6.188-51.173-2.326-80.559,3.065-74.938,13.747-112.408,20.621-134.925,26.543-53.405,14.046-94.846,28.534-116.707,36.526-83.114,30.385-148.213,63.74-189.67,86.847-26.054,14.522-93.873,53.489-173.904,115.871-39.162,30.526-71.239,58.857-95.761,81.773Z" fill="#ef7043"></path><path d="M494.46,2352.665c33.556-32.927,68.826-70.505,104.41-113.068,40.404-48.327,74.637-95.213,103.528-138.785,12.629,12.582,29.786,29.001,50.922,47.315,46.595,40.373,89.077,69.639,119.881,89.142,14.916,9.444,61.173,38.175,125.81,67.565,28.775,13.083,66.498,30.069,118.212,45.43,33.968,10.09,65.2,16.873,95.954,23.552,73.356,15.931,84.541,14.027,109.641,27.993,12.273,6.829,44.74,25.453,66.264,64.798,27.557,50.375,18.081,99.813,15.448,111.756-1.269,5.757-15.63,66.403-72.137,102.656-22.131,14.198-42.77,19.55-51.675,21.502-28.537,6.255-50.91,2.658-77.965-2.088-68.496-12.018-102.744-18.027-134.926-26.543-60.234-15.939-104.883-32.173-116.707-36.526-22.975-8.459-97.35-36.618-188.264-87.681-48.486-27.233-108.493-64.809-173.068-115.259-38.758-30.281-70.648-58.547-95.329-81.759Z" fill="#477ab2"></path></svg>